<svg width="512" height="512" viewBox="0 0 512 512" fill="none" xmlns="http://www.w3.org/2000/svg">
<path d="M23 0H212.396C246.797 0.747243 281.751 3.76389 314.406 15.5537C378.748 37.4452 433.949 85.3518 463.752 146.487C492.308 204.108 497.072 272.938 476.881 333.99C457.548 393.465 415.059 444.693 360.966 475.911C323.27 498.107 279.951 509.62 236.41 512H23V433.65C92.244 433.152 161.516 433.761 230.76 433.346C278.123 432.654 324.959 413.198 358.529 379.766C389.051 349.876 408.357 308.611 410.572 265.853C413.093 224.533 399.521 182.715 373.901 150.224C340.138 106.634 285.906 80.0381 230.815 79.4015C187.856 79.3738 144.925 79.4015 101.966 79.4015C102.021 99.4387 101.717 119.504 102.104 139.568C75.7639 139.928 49.285 138.96 23 140.039V0Z" fill="#FF6A13"/>
</svg>
