<svg xmlns="http://www.w3.org/2000/svg" version="1.1" xmlns:xlink="http://www.w3.org/1999/xlink" xmlns:svgjs="http://svgjs.dev/svgjs" width="512" height="512"><svg width="512" height="512" viewBox="0 0 512 512" fill="none" xmlns="http://www.w3.org/2000/svg">
<path d="M45 0H234.396C268.797 0.747243 303.751 3.76389 336.406 15.5537C400.748 37.4452 455.949 85.3518 485.752 146.487C514.308 204.108 519.072 272.938 498.881 333.99C479.548 393.465 437.059 444.693 382.966 475.911C345.27 498.107 301.951 509.62 258.41 512H45V433.65C114.244 433.152 183.516 433.761 252.76 433.346C300.123 432.654 346.959 413.198 380.529 379.766C411.051 349.876 430.357 308.611 432.572 265.853C435.093 224.533 421.521 182.715 395.901 150.224C362.138 106.634 307.906 80.0381 252.815 79.4015C209.856 79.3738 166.925 79.4015 123.966 79.4015C124.021 99.4387 123.717 119.504 124.104 139.568C97.7639 139.928 71.285 138.96 45 140.039V0Z" fill="#FF6A13"></path>
</svg><style>@media (prefers-color-scheme: light) { :root { filter: none; } }
@media (prefers-color-scheme: dark) { :root { filter: none; } }
</style></svg>